<svg width="24" height="24" viewBox="0 0 24 24" fill="none" xmlns="http://www.w3.org/2000/svg">
<path d="M22.7333 11H1.26667C0.567106 11 0 11.8507 0 12.9V13.1C0 14.1493 0.567106 15 1.26667 15H22.7333C23.4329 15 24 14.1493 24 13.1V12.9C24 11.8507 23.4329 11 22.7333 11Z" fill="white"/>
<path d="M22.7333 19H1.26667C0.567106 19 0 19.8507 0 20.9V21.1C0 22.1493 0.567106 23 1.26667 23H22.7333C23.4329 23 24 22.1493 24 21.1V20.9C24 19.8507 23.4329 19 22.7333 19Z" fill="white"/>
<path d="M22.7333 3H1.26667C0.567106 3 0 3.85066 0 4.9V5.1C0 6.14934 0.567106 7 1.26667 7H22.7333C23.4329 7 24 6.14934 24 5.1V4.9C24 3.85066 23.4329 3 22.7333 3Z" fill="white"/>
</svg>
