<svg width="21" height="20" viewBox="0 0 21 20" fill="none" xmlns="http://www.w3.org/2000/svg">
<path d="M19.7613 13.9836H5.20035C4.9245 13.9836 4.65996 13.8783 4.46491 13.691C4.26986 13.5037 4.16028 13.2496 4.16028 12.9847C4.16028 12.7198 4.26986 12.4658 4.46491 12.2785C4.65996 12.0911 4.9245 11.9859 5.20035 11.9859H16.0587C16.7541 11.9859 17.4296 11.7629 17.978 11.3521C18.5263 10.9413 18.916 10.3664 19.0853 9.71857L20.8014 3.23619C20.8403 3.08877 20.8437 2.93476 20.8113 2.78589C20.7788 2.63703 20.7114 2.49725 20.6142 2.3772C20.513 2.25408 20.3831 2.15556 20.2349 2.08962C20.0868 2.02368 19.9245 1.99217 19.7613 1.99765H4.95073C4.73615 1.41479 4.3391 0.909928 3.814 0.552289C3.28891 0.19465 2.66148 0.00173747 2.01773 0H1.04007C0.764226 0 0.49968 0.105233 0.304629 0.292549C0.109578 0.479865 0 0.73392 0 0.998825C0 1.26373 0.109578 1.51779 0.304629 1.7051C0.49968 1.89242 0.764226 1.99765 1.04007 1.99765H2.01773C2.25532 1.991 2.48811 2.06271 2.67735 2.20082C2.86659 2.33894 3.00086 2.53514 3.0578 2.75676L3.12021 3.23619L4.91953 9.98825C4.092 10.024 3.31315 10.374 2.75433 10.9612C2.19551 11.5485 1.90249 12.3249 1.93973 13.1196C1.97697 13.9143 2.34142 14.6622 2.9529 15.1989C3.56438 15.7356 4.37282 16.017 5.20035 15.9812H5.38756C5.2165 16.4338 5.16154 16.9193 5.22731 17.3966C5.29309 17.874 5.47768 18.329 5.76543 18.7233C6.05319 19.1176 6.43565 19.4395 6.88042 19.6617C7.3252 19.884 7.81918 20 8.32055 20C8.82192 20 9.31591 19.884 9.76068 19.6617C10.2055 19.4395 10.5879 19.1176 10.8757 18.7233C11.1634 18.329 11.348 17.874 11.4138 17.3966C11.4796 16.9193 11.4246 16.4338 11.2535 15.9812H13.7081C13.5371 16.4338 13.4821 16.9193 13.5479 17.3966C13.6136 17.874 13.7982 18.329 14.086 18.7233C14.3737 19.1176 14.7562 19.4395 15.201 19.6617C15.6457 19.884 16.1397 20 16.6411 20C17.1425 20 17.6365 19.884 18.0812 19.6617C18.526 19.4395 18.9085 19.1176 19.1962 18.7233C19.484 18.329 19.6686 17.874 19.7343 17.3966C19.8001 16.9193 19.7452 16.4338 19.5741 15.9812H19.7613C20.0372 15.9812 20.3017 15.876 20.4968 15.6887C20.6918 15.5013 20.8014 15.2473 20.8014 14.9824C20.8014 14.7175 20.6918 14.4634 20.4968 14.2761C20.3017 14.0888 20.0372 13.9836 19.7613 13.9836ZM18.43 3.9953L17.0675 9.22914C17.0106 9.45076 16.8763 9.64696 16.6871 9.78508C16.4978 9.9232 16.2651 9.9949 16.0275 9.98825H7.05167L5.49157 3.9953H18.43ZM8.32055 17.9789C8.11485 17.9789 7.91376 17.9203 7.74272 17.8105C7.57168 17.7008 7.43837 17.5448 7.35965 17.3623C7.28093 17.1798 7.26034 16.9789 7.30047 16.7852C7.3406 16.5914 7.43966 16.4134 7.58511 16.2738C7.73057 16.1341 7.91589 16.0389 8.11765 16.0004C8.3194 15.9619 8.52852 15.9816 8.71857 16.0572C8.90862 16.1328 9.07105 16.2609 9.18534 16.4251C9.29962 16.5894 9.36062 16.7825 9.36062 16.98C9.36062 17.2449 9.25104 17.499 9.05599 17.6863C8.86094 17.8736 8.5964 17.9789 8.32055 17.9789ZM16.6411 17.9789C16.4354 17.9789 16.2343 17.9203 16.0633 17.8105C15.8922 17.7008 15.7589 17.5448 15.6802 17.3623C15.6015 17.1798 15.5809 16.9789 15.621 16.7852C15.6612 16.5914 15.7602 16.4134 15.9057 16.2738C16.0511 16.1341 16.2364 16.0389 16.4382 16.0004C16.64 15.9619 16.8491 15.9816 17.0391 16.0572C17.2292 16.1328 17.3916 16.2609 17.5059 16.4251C17.6202 16.5894 17.6812 16.7825 17.6812 16.98C17.6812 17.2449 17.5716 17.499 17.3765 17.6863C17.1815 17.8736 16.9169 17.9789 16.6411 17.9789Z" fill="#90B3CE"/>
</svg>
