<svg width="21" height="20" viewBox="0 0 21 20" fill="none" xmlns="http://www.w3.org/2000/svg">
<path d="M20.7076 18.3139L16.8453 14.6333C18.3445 12.8374 19.0705 10.5579 18.8741 8.26356C18.6776 5.96919 17.5737 3.83432 15.7891 2.29792C14.0046 0.761532 11.6752 -0.0595993 9.2799 0.00337152C6.88457 0.0663423 4.60538 1.00863 2.91099 2.63648C1.21661 4.26433 0.235802 6.454 0.170257 8.75527C0.104713 11.0565 0.959409 13.2945 2.5586 15.0089C4.1578 16.7233 6.37993 17.784 8.76809 17.9727C11.1563 18.1614 13.5289 17.4639 15.3982 16.0235L19.2293 19.7042C19.3261 19.7979 19.4412 19.8723 19.5681 19.9231C19.6949 19.9739 19.831 20 19.9684 20C20.1058 20 20.2419 19.9739 20.3688 19.9231C20.4956 19.8723 20.6108 19.7979 20.7076 19.7042C20.8952 19.5177 21.0001 19.2684 21.0001 19.009C21.0001 18.7497 20.8952 18.5004 20.7076 18.3139V18.3139ZM9.55794 16.0235C8.11664 16.0235 6.70771 15.6129 5.50931 14.8436C4.31091 14.0743 3.37688 12.9809 2.82532 11.7016C2.27376 10.4223 2.12944 9.01462 2.41063 7.65653C2.69181 6.29844 3.38586 5.05095 4.40501 4.07183C5.42417 3.0927 6.72264 2.4259 8.13625 2.15576C9.54985 1.88562 11.0151 2.02426 12.3467 2.55417C13.6783 3.08407 14.8164 3.98142 15.6171 5.13276C16.4179 6.28409 16.8453 7.63769 16.8453 9.02239C16.8453 10.8792 16.0775 12.66 14.7109 13.973C13.3442 15.2859 11.4907 16.0235 9.55794 16.0235V16.0235Z" fill="#90B3CE"/>
</svg>
