<?xml version="1.0" encoding="utf-8"?>
<svg width="512" height="512" fill="#665ca7" role="img" aria-label="Viber" xmlns="http://www.w3.org/2000/svg">
  <g>
    <path stroke="rgb(255,0,0)" stroke-width="0" d="M 199.114 72.759 C 216.172 71.12 258.568 72.297 274.499 73.228 C 283.564 73.757 284.26 73.958 292.76 75.569 C 306.627 78.197 337.823 84.446 353.63 90.084 C 365.676 94.38 379.227 102.242 381.958 104.365 C 382.734 104.968 382.121 104.922 382.66 105.535 C 383.973 107.027 388.582 111.807 392.025 113.964 C 395.386 116.069 399.274 114.439 403.028 118.412 C 409.627 125.393 418.569 148.211 423.63 162.425 C 428.269 175.451 430.755 183.913 432.995 200.352 C 436.155 223.543 440.528 270.391 437.209 292.593 C 434.923 307.883 429.023 316.639 423.63 326.306 C 418.788 334.986 410.11 345.584 407.008 348.547 C 405.746 349.752 405.069 349.361 404.433 349.951 C 403.865 350.478 403.613 351.375 403.262 351.824 C 403.008 352.151 402.887 352.272 402.56 352.527 C 402.111 352.877 401.194 353.19 400.687 353.697 C 400.18 354.204 399.867 355.121 399.517 355.57 C 399.262 355.896 399.307 355.828 398.814 356.272 C 397.389 357.557 389.963 363.384 388.045 365.403 C 387.033 366.469 386.838 367.219 386.406 367.744 C 386.123 368.088 386.278 368.008 385.704 368.446 C 383.758 369.93 374.866 376.765 368.145 379.918 C 360.764 383.38 351.731 386.379 342.861 387.878 C 333.66 389.432 321.779 388.116 313.831 388.814 C 307.627 389.359 305.774 390.669 298.379 391.155 C 286.125 391.962 254.277 391.906 243.128 391.155 C 237.104 390.75 235.766 388.45 231.422 389.283 C 225.957 390.331 218.832 393.162 212.927 399.349 C 204.696 407.973 195.545 435.603 189.75 441.724 C 186.962 444.669 185.116 444.466 182.726 445.002 C 180.43 445.517 178.09 445.626 175.703 445.002 C 173.029 444.302 169.518 442.558 167.509 440.554 C 165.623 438.672 164.395 436.071 163.763 433.53 C 163.117 430.93 163.305 428.094 163.763 425.102 C 164.278 421.743 167.127 418.487 167.041 414.333 C 166.935 409.248 162.676 403.24 161.422 396.54 C 159.989 388.883 164.117 376.797 159.549 370.553 C 154.702 363.928 140.175 363.267 131.689 358.848 C 123.726 354.7 112.145 346.696 109.917 345.035 C 109.311 344.583 109.469 344.659 109.214 344.332 C 108.864 343.883 108.655 343.134 108.044 342.46 C 107.208 341.538 105.86 341.469 104.298 339.416 C 101.092 335.204 94.381 323.272 90.719 313.663 C 86.724 303.177 83.548 291.948 81.823 278.546 C 79.795 262.787 80.543 238.664 80.886 224.232 C 81.144 213.436 81.762 206.227 82.759 198.011 C 83.686 190.379 84.599 183.899 86.505 176.472 C 88.555 168.486 90.932 160.247 94.933 151.656 C 99.434 141.993 110.548 124.287 112.96 121.455 C 113.618 120.683 113.819 121.065 114.131 120.753 C 114.443 120.441 114.582 119.906 114.833 119.582 C 115.054 119.297 115.225 119.227 115.535 118.88 C 116.038 118.318 117.025 116.855 117.642 116.305 C 118.075 115.92 118.501 115.915 118.813 115.602 C 119.125 115.29 119.13 114.864 119.515 114.432 C 120.066 113.815 121.54 112.942 122.091 112.325 C 122.476 111.893 122.365 111.602 122.793 111.154 C 123.474 110.442 125.624 109.291 126.305 108.579 C 126.733 108.131 126.435 107.977 127.007 107.408 C 128.389 106.033 135.692 101.526 137.074 100.151 C 137.646 99.582 137.349 99.428 137.776 98.98 C 138.457 98.268 140.608 97.117 141.288 96.405 C 141.716 95.957 141.563 95.682 141.99 95.234 C 142.671 94.522 144.822 93.372 145.502 92.659 C 145.93 92.211 145.406 92.068 146.204 91.489 C 149.072 89.407 167.28 81.074 176.639 77.91 C 184.716 75.179 188.494 73.78 199.114 72.759 Z" style="stroke: rgb(129, 151, 57); stroke-width: 2px; fill: rgb(255, 255, 255); paint-order: stroke; fill-rule: nonzero;"/>
  </g>
  <g>
    <title>Layer 1</title>
    <path id="svg_2" d="m269,186a30,30 0 0 1 31,31m-38,-58a64,64 0 0 1 64,67m-73,-93a97,97 0 0 1 99,104" stroke-width="10" stroke-linecap="round" stroke="#665ca7" fill="none" style="pointer-events: none;"/>
    <path id="svg_3" d="M 288 274 C 294.667 265.333 302.667 264 312 270 L 348 297 C 353.333 303.667 351 313 341 325 C 331 337 321.667 342 313 340 C 277.667 332 243.667 312 211 280 C 178.333 248 158 213.333 150 176 C 150 162.667 158.333 151.333 175 142 C 183.667 136 191 137.667 197 147 L 222 182 C 226 190 223.667 197.333 215 204 C 176 219 266 316 288 274 Z M 95 232 C 95 310 109 327 131 350 C 138 357 163 369 169 369 L 169 438 C 169 442 173 445 177 441 L 230 378 L 256 379 C 400 379 417 323 417 232 C 417 141 400 85 256 85 C 112 85 95 141 95 232 Z M 65 232 C 65 106 120 55 256 55 C 392 55 447 106 447 232 C 447 358 392 409 256 409 C 246 409 238 409 224 407 L 186 450 C 179 458 158 461 158 437 L 158 395 C 152 395 138 389 119 377 C 100 364 65 333 65 232 Z" style="pointer-events: none;"/>
  </g>
</svg>